<?xml version="1.0" encoding="iso-8859-1"?>
<!-- Uploaded to: SVG Repo, www.svgrepo.com, Generator: SVG Repo Mixer Tools -->
<!DOCTYPE svg PUBLIC "-//W3C//DTD SVG 1.1//EN" "http://www.w3.org/Graphics/SVG/1.1/DTD/svg11.dtd">
<svg fill="#000000" version="1.1" id="Capa_1" xmlns="http://www.w3.org/2000/svg" xmlns:xlink="http://www.w3.org/1999/xlink" 
	 width="800px" height="800px" viewBox="0 0 137.7 137.7" xml:space="preserve"
	>
<g>
	<path d="M137.7,63.065c0-11.873-5.264-22.884-13.722-28.748c-7.583-5.276-17.255-5.601-25.17-1.058
		c-9.772-5.416-21.943-3.512-29.953,3.568c-8.029-7.085-20.234-8.983-29.959-3.568c-7.831-4.493-17.55-4.25-25.17,1.058
		C5.26,40.17,0,51.192,0,63.065c0,3.391,0.432,6.75,1.215,9.661c1.311,7.425,5.756,18.446,13.563,33.676v19.195
		c0,1.487,0.817,2.858,2.128,3.565c5.751,3.101,24.938,8.021,51.943,8.021c27.443,0,46.006-4.124,52.239-8.211
		c1.139-0.738,1.835-2.009,1.835-3.386v-19.174c7.699-15.029,12.276-26.367,13.511-33.386C137.272,69.815,137.7,66.466,137.7,63.065
		z M65.723,45.209c0.772,0.938,1.917,1.484,3.138,1.484l0,0c1.216,0,2.362-0.557,3.138-1.484c5.732-7.027,16.026-9.619,24.042-4.293
		c6.386,4.271,10.352,12.496,10.352,21.474c0,2.605-0.343,5.194-1.097,8.005c-0.828,4.493-3.344,11.096-7.304,19.396
		c-9.814-1.682-20.693-2.31-29.146-2.31c-8.445,0-19.322,0.628-29.139,2.31c-3.974-8.363-6.507-15.05-7.372-19.717
		c-0.686-2.526-1.031-5.118-1.031-7.694c0-8.983,3.971-17.202,10.362-21.463C49.62,35.625,60.004,38.216,65.723,45.209z
		 M114.813,104.43c-1.646,1.914-8.026,4.45-18.505,6.223c2.325-4.219,4.393-8.127,6.254-11.797
		c6.776,1.534,10.964,3.316,12.251,4.614V104.43z M86.294,111.945c-5.199,0.485-11,0.785-17.444,0.785
		c-6.441,0-12.247-0.311-17.441-0.785c-2.988-5.258-5.627-10.114-7.95-14.607c6.924-1.039,15.417-1.757,25.392-1.757
		c9.978,0,18.479,0.718,25.407,1.735C91.927,101.82,89.284,106.687,86.294,111.945z M22.873,103.876
		c1.287-1.482,5.482-3.375,12.287-4.968c1.856,3.676,3.913,7.557,6.236,11.765c-10.492-1.729-16.88-4.171-18.528-5.843
		L22.873,103.876L22.873,103.876z M8.1,63.065c0-9.26,3.926-17.727,10.238-22.096c4.169-2.9,9.058-3.575,13.521-2.112
		c-5.432,6.043-8.651,14.515-8.651,23.511c0,3.291,0.443,6.598,1.237,9.487c0.886,4.836,3.301,11.438,7.119,19.664
		c-5.105,1.335-9.479,3.064-12.541,5.273c-5.529-11.327-8.862-19.938-9.908-25.792C8.44,68.422,8.1,65.754,8.1,63.065z
		 M68.85,129.083c-22.976,0-39.49-3.718-45.971-6.128v-9.16c11.427,5.353,32.028,7.035,45.971,7.035
		c13.943,0,34.541-1.683,45.974-7.035v9.371C108.717,125.83,93.197,129.083,68.85,129.083z M128.524,71.313
		c-0.997,5.59-4.319,14.164-9.852,25.491c-3.048-2.198-7.425-3.938-12.519-5.273c3.786-8.168,6.19-14.676,7.04-19.332
		c0.87-3.201,1.308-6.497,1.308-9.809c0-8.994-3.222-17.463-8.644-23.509c4.515-1.487,9.34-0.812,13.511,2.099
		c6.308,4.385,10.241,12.846,10.241,22.104C129.6,65.765,129.263,68.444,128.524,71.313z M68.85,30.802
		c8.343,0,15.135-6.795,15.135-15.148c0-8.342-6.787-15.137-15.135-15.137S53.712,7.312,53.712,15.654
		C53.712,24.007,60.507,30.802,68.85,30.802z M68.85,8.625c3.876,0,7.035,3.154,7.035,7.035c0,3.889-3.153,7.053-7.035,7.053
		c-3.884,0-7.037-3.164-7.037-7.053C61.812,11.778,64.974,8.625,68.85,8.625z"/>
</g>
</svg>